<svg xmlns="http://www.w3.org/2000/svg" xmlns:xlink="http://www.w3.org/1999/xlink" width="480" height="480" version="1.1" viewBox="0 0 40 40"><g id="surface1"><path fill="#FFF" d="M 7 37.5 C 4.519531 37.5 2.5 35.480469 2.5 33 L 2.5 7 C 2.5 4.519531 4.519531 2.5 7 2.5 L 33 2.5 C 35.480469 2.5 37.5 4.519531 37.5 7 L 37.5 33 C 37.5 35.480469 35.480469 37.5 33 37.5 Z"/><path fill="#4788C7" d="M 33 3 C 35.207031 3 37 4.792969 37 7 L 37 33 C 37 35.207031 35.207031 37 33 37 L 7 37 C 4.792969 37 3 35.207031 3 33 L 3 7 C 3 4.792969 4.792969 3 7 3 L 33 3 M 33 2 L 7 2 C 4.238281 2 2 4.238281 2 7 L 2 33 C 2 35.761719 4.238281 38 7 38 L 33 38 C 35.761719 38 38 35.761719 38 33 L 38 7 C 38 4.238281 35.761719 2 33 2 Z"/><path fill="#B6DCFE" d="M 38 11.691406 L 2 11.691406 L 2 7 C 2 4.238281 4.238281 2 7 2 L 33 2 C 35.761719 2 38 4.238281 38 7 Z"/><path fill="#DFF0FE" d="M 32 9 L 34 9 C 34.550781 9 35 8.550781 35 8 L 35 6 C 35 5.449219 34.550781 5 34 5 L 32 5 C 31.449219 5 31 5.449219 31 6 L 31 8 C 31 8.550781 31.449219 9 32 9 Z"/><path fill="#FFF" d="M 6 2.691406 L 8 2.691406 L 8 11.691406 L 6 11.691406 Z"/><path fill="#DFF0FE" d="M 8 2.691406 L 10 2.691406 L 10 11.691406 L 8 11.691406 Z"/><path fill="#B6DCFE" d="M 10 2.691406 L 12 2.691406 L 12 11.691406 L 10 11.691406 Z"/><path fill="#98CCFD" d="M 12 2.691406 L 14 2.691406 L 14 11.691406 L 12 11.691406 Z"/><path fill="#FFF" d="M 32 21 C 32 27.628906 26.628906 33 20 33 C 13.371094 33 8 27.628906 8 21 C 8 14.371094 13.371094 9 20 9 C 26.628906 9 32 14.371094 32 21 Z"/><path fill="#4788C7" d="M 33 3 C 35.207031 3 37 4.792969 37 7 L 37 10.691406 L 27.917969 10.691406 C 25.652344 8.953125 22.855469 8 20 8 C 17.144531 8 14.347656 8.953125 12.082031 10.691406 L 3 10.691406 L 3 7 C 3 4.792969 4.792969 3 7 3 L 33 3 M 33 2 L 7 2 C 4.238281 2 2 4.238281 2 7 L 2 11.691406 L 12.429688 11.691406 C 14.496094 10.011719 17.128906 9 20 9 C 22.871094 9 25.503906 10.011719 27.570313 11.691406 L 38 11.691406 L 38 7 C 38 4.238281 35.761719 2 33 2 Z"/><path fill="#B6DCFE" d="M 20 30.5 C 14.761719 30.5 10.5 26.238281 10.5 21 C 10.5 15.761719 14.761719 11.5 20 11.5 C 25.238281 11.5 29.5 15.761719 29.5 21 C 29.5 26.238281 25.238281 30.5 20 30.5 Z"/><path fill="#4788C7" d="M 20 12 C 24.964844 12 29 16.035156 29 21 C 29 25.964844 24.964844 30 20 30 C 15.035156 30 11 25.964844 11 21 C 11 16.035156 15.035156 12 20 12 M 20 11 C 14.476563 11 10 15.476563 10 21 C 10 26.523438 14.476563 31 20 31 C 25.523438 31 30 26.523438 30 21 C 30 15.476563 25.523438 11 20 11 Z"/><path fill="#4788C7" d="M 22 21 C 22 22.105469 21.105469 23 20 23 C 18.894531 23 18 22.105469 18 21 C 18 19.894531 18.894531 19 20 19 C 21.105469 19 22 19.894531 22 21 Z"/><path fill="#4788C7" d="M 33 3 C 35.207031 3 37 4.792969 37 7 L 37 33 C 37 35.207031 35.207031 37 33 37 L 7 37 C 4.792969 37 3 35.207031 3 33 L 3 7 C 3 4.792969 4.792969 3 7 3 L 33 3 M 33 2 L 7 2 C 4.238281 2 2 4.238281 2 7 L 2 33 C 2 35.761719 4.238281 38 7 38 L 33 38 C 35.761719 38 38 35.761719 38 33 L 38 7 C 38 4.238281 35.761719 2 33 2 Z"/></g></svg>